# xmcd
#
# Track frame offsets:
#	150
#	11675
#	36839
#	56317
#	79390
#	97060
#	114683
#	132609
#	147629
#	175027
#	189617
#
# Disc length: 2846 seconds
#
# Revision: 1
# Processed by: cddbd v1.5.1PL0 Copyright (c) Steve Scherf et al.
# Submitted via: EasyCDDAExtractor 7.0.5.1
#
DISCID=a00b1c0b
DTITLE=Big Nick and the Gila Monsters - High, Wide and Handsome
DYEAR=1997
DGENRE=Blues
TTITLE0=Strollin' With Bone
TTITLE1=After All
TTITLE2=Lonesome Train (on a lonesome track)
TTITLE3=High, Wide and Handsome
TTITLE4=Kathleen
TTITLE5=Heart Beats Like a Hammer
TTITLE6=Whole Lot of Lovin'
TTITLE7=Chicken Fat
TTITLE8=Let's Get Down (to bid'ness)
TTITLE9=She's Murder!
TTITLE10=Interlude
EXTD=
EXTT0=
EXTT1=
EXTT2=
EXTT3=
EXTT4=
EXTT5=
EXTT6=
EXTT7=
EXTT8=
EXTT9=
EXTT10=
PLAYORDER=
